<svg width="140" height="51" viewBox="0 0 140 51" fill="none" xmlns="http://www.w3.org/2000/svg">
<path d="M10.5 27.5L2 25C5 11.5 6 5 18.5 2C18.5 7 27 12.5 30.5 2C46.1 5.6 44.5 16.5 47 25L38.5 27.5M38.5 27.5V49.5H10.5V18.5M38.5 27.5V18.5M24.5 19.5C21.5 16 11 21 24.5 30.5C37.5 21 28 16 24.5 19.5Z" stroke="#00BF63" stroke-width="3"/>
<path d="M61.2718 34H55.4318V17.5258H61.3201C62.9771 17.5258 64.4036 17.8556 65.5995 18.5152C66.7954 19.1695 67.7151 20.1106 68.3586 21.3387C69.0075 22.5667 69.3319 24.0361 69.3319 25.7468C69.3319 27.4629 69.0075 28.9376 68.3586 30.171C67.7151 31.4045 66.79 32.351 65.5834 33.0106C64.3822 33.6702 62.945 34 61.2718 34ZM58.9149 31.0157H61.127C62.1567 31.0157 63.0227 30.8333 63.7252 30.4687C64.4331 30.0986 64.964 29.5275 65.318 28.7553C65.6773 27.9777 65.8569 26.9749 65.8569 25.7468C65.8569 24.5295 65.6773 23.5347 65.318 22.7625C64.964 21.9903 64.4358 21.4218 63.7333 21.0571C63.0308 20.6925 62.1647 20.5102 61.1351 20.5102H58.9149V31.0157ZM77.4303 34.2413C76.1808 34.2413 75.1002 33.9759 74.1885 33.445C73.2822 32.9087 72.5824 32.1633 72.089 31.2087C71.5957 30.2488 71.349 29.136 71.349 27.8704C71.349 26.5941 71.5957 25.4787 72.089 24.5241C72.5824 23.5642 73.2822 22.8188 74.1885 22.2879C75.1002 21.7516 76.1808 21.4835 77.4303 21.4835C78.6798 21.4835 79.7577 21.7516 80.664 22.2879C81.5756 22.8188 82.2781 23.5642 82.7715 24.5241C83.2649 25.4787 83.5116 26.5941 83.5116 27.8704C83.5116 29.136 83.2649 30.2488 82.7715 31.2087C82.2781 32.1633 81.5756 32.9087 80.664 33.445C79.7577 33.9759 78.6798 34.2413 77.4303 34.2413ZM77.4463 31.5868C78.0148 31.5868 78.4894 31.4259 78.8701 31.1041C79.2509 30.777 79.5378 30.3319 79.7309 29.7688C79.9293 29.2058 80.0285 28.5649 80.0285 27.8463C80.0285 27.1277 79.9293 26.4869 79.7309 25.9238C79.5378 25.3607 79.2509 24.9156 78.8701 24.5885C78.4894 24.2614 78.0148 24.0978 77.4463 24.0978C76.8725 24.0978 76.3899 24.2614 75.9984 24.5885C75.6123 24.9156 75.32 25.3607 75.1216 25.9238C74.9286 26.4869 74.832 27.1277 74.832 27.8463C74.832 28.5649 74.9286 29.2058 75.1216 29.7688C75.32 30.3319 75.6123 30.777 75.9984 31.1041C76.3899 31.4259 76.8725 31.5868 77.4463 31.5868ZM89.263 34.2333C88.4747 34.2333 87.7722 34.0965 87.1555 33.823C86.5388 33.5442 86.0508 33.1339 85.6915 32.5923C85.3375 32.0453 85.1606 31.3642 85.1606 30.5491C85.1606 29.8627 85.2866 29.2862 85.5386 28.8196C85.7907 28.3531 86.1339 27.9777 86.5683 27.6935C87.0027 27.4093 87.496 27.1947 88.0484 27.05C88.6061 26.9052 89.1906 26.8033 89.802 26.7443C90.5206 26.6692 91.0998 26.5995 91.5395 26.5351C91.9792 26.4654 92.2983 26.3635 92.4967 26.2295C92.6952 26.0954 92.7944 25.897 92.7944 25.6342V25.5859C92.7944 25.0765 92.6335 24.6823 92.3117 24.4035C91.9953 24.1246 91.5449 23.9852 90.9603 23.9852C90.3436 23.9852 89.8529 24.1219 89.4883 24.3954C89.1236 24.6636 88.8823 25.0014 88.7643 25.409L85.595 25.1516C85.7558 24.4008 86.0722 23.7519 86.5442 23.2049C87.0161 22.6525 87.6247 22.2289 88.3701 21.9339C89.1209 21.6336 89.9897 21.4835 90.9764 21.4835C91.6628 21.4835 92.3198 21.5639 92.9472 21.7248C93.58 21.8857 94.1404 22.135 94.6284 22.4729C95.1218 22.8107 95.5106 23.2451 95.7948 23.776C96.079 24.3016 96.2211 24.9317 96.2211 25.6664V34H92.9713V32.2866H92.8748C92.6764 32.6727 92.4109 33.0133 92.0784 33.3082C91.746 33.5978 91.3464 33.8257 90.8799 33.992C90.4133 34.1528 89.8744 34.2333 89.263 34.2333ZM90.2444 31.8683C90.7485 31.8683 91.1936 31.7691 91.5797 31.5707C91.9658 31.3669 92.2688 31.0934 92.4887 30.7502C92.7086 30.407 92.8185 30.0182 92.8185 29.5838V28.2726C92.7112 28.3424 92.5638 28.4067 92.3761 28.4657C92.1937 28.5193 91.9873 28.5703 91.7567 28.6185C91.5261 28.6614 91.2955 28.7017 91.0649 28.7392C90.8343 28.7714 90.6252 28.8009 90.4375 28.8277C90.0353 28.8867 89.684 28.9805 89.3837 29.1092C89.0834 29.2379 88.8501 29.4122 88.6839 29.6321C88.5176 29.8466 88.4345 30.1147 88.4345 30.4365C88.4345 30.903 88.6034 31.2597 88.9413 31.5063C89.2845 31.7477 89.7189 31.8683 90.2444 31.8683ZM104.446 38.8908C103.336 38.8908 102.384 38.7379 101.591 38.4323C100.802 38.132 100.175 37.7217 99.7082 37.2015C99.2417 36.6813 98.9387 36.0968 98.7992 35.4479L101.969 35.0216C102.065 35.2683 102.218 35.4989 102.427 35.7134C102.636 35.9279 102.912 36.0995 103.256 36.2282C103.604 36.3623 104.028 36.4293 104.527 36.4293C105.272 36.4293 105.886 36.247 106.369 35.8823C106.857 35.523 107.101 34.9197 107.101 34.0724V31.812H106.956C106.806 32.1552 106.581 32.4797 106.28 32.7854C105.98 33.091 105.594 33.3404 105.122 33.5334C104.65 33.7265 104.087 33.823 103.433 33.823C102.505 33.823 101.66 33.6085 100.899 33.1795C100.143 32.7451 99.5393 32.0828 99.0888 31.1926C98.6437 30.2971 98.4212 29.1655 98.4212 27.798C98.4212 26.3984 98.6491 25.2293 99.1049 24.2909C99.5607 23.3524 100.167 22.6499 100.923 22.1833C101.684 21.7168 102.518 21.4835 103.425 21.4835C104.116 21.4835 104.696 21.6015 105.162 21.8374C105.629 22.068 106.004 22.3576 106.288 22.7062C106.578 23.0494 106.8 23.3872 106.956 23.7197H107.085V21.6444H110.487V34.1207C110.487 35.1717 110.23 36.0512 109.715 36.7591C109.2 37.467 108.487 37.9979 107.575 38.3518C106.669 38.7111 105.626 38.8908 104.446 38.8908ZM104.519 31.2489C105.071 31.2489 105.537 31.1122 105.918 30.8387C106.304 30.5598 106.599 30.163 106.803 29.6482C107.012 29.128 107.117 28.5059 107.117 27.782C107.117 27.058 107.015 26.4306 106.811 25.8997C106.607 25.3634 106.312 24.9478 105.926 24.6528C105.54 24.3579 105.071 24.2104 104.519 24.2104C103.955 24.2104 103.481 24.3632 103.095 24.6689C102.709 24.9692 102.416 25.3875 102.218 25.9238C102.02 26.4601 101.92 27.0794 101.92 27.782C101.92 28.4952 102.02 29.1119 102.218 29.6321C102.422 30.1469 102.714 30.5464 103.095 30.8307C103.481 31.1095 103.955 31.2489 104.519 31.2489ZM115.33 38.6334C114.895 38.6334 114.488 38.5985 114.107 38.5288C113.732 38.4644 113.421 38.3813 113.174 38.2794L113.946 35.7214C114.348 35.8448 114.71 35.9118 115.032 35.9225C115.359 35.9332 115.641 35.8582 115.877 35.6973C116.118 35.5364 116.314 35.2629 116.464 34.8768L116.665 34.3539L112.233 21.6444H115.837L118.395 30.718H118.523L121.105 21.6444H124.733L119.931 35.3353C119.7 36.0003 119.387 36.5795 118.99 37.0728C118.598 37.5716 118.102 37.955 117.502 38.2231C116.901 38.4966 116.177 38.6334 115.33 38.6334ZM129.914 26.8569V34H126.487V21.6444H129.753V23.8243H129.897C130.171 23.1057 130.629 22.5373 131.273 22.119C131.917 21.6953 132.697 21.4835 133.614 21.4835C134.472 21.4835 135.22 21.6712 135.858 22.0466C136.496 22.422 136.992 22.9582 137.346 23.6554C137.7 24.3472 137.877 25.173 137.877 26.1329V34H134.45V26.7443C134.456 25.9881 134.263 25.3982 133.871 24.9746C133.48 24.5456 132.941 24.3311 132.254 24.3311C131.793 24.3311 131.386 24.4303 131.032 24.6287C130.683 24.8271 130.41 25.1167 130.211 25.4975C130.018 25.8728 129.919 26.326 129.914 26.8569Z" fill="white"/>
</svg>
