<svg width="241" height="184" viewBox="0 0 241 184" fill="none" xmlns="http://www.w3.org/2000/svg">
<path d="M230.33 109.061C227.714 107.045 224.715 105.582 221.516 104.762C218.316 103.942 214.983 103.782 211.72 104.291C230.5 85.3309 240 66.4809 240 48.0009C240 21.5309 218.71 0.000938288 192.54 0.000938288C185.596 -0.0426685 178.727 1.43418 172.414 4.32782C166.102 7.22145 160.499 11.4617 156 16.7509C151.501 11.4617 145.898 7.22145 139.586 4.32782C133.273 1.43418 126.404 -0.0426685 119.46 0.000938288C93.29 0.000938288 72 21.5309 72 48.0009C72 59.0009 75.24 69.6909 82.06 81.0009C76.4744 82.4161 71.3769 85.319 67.31 89.4009L44.69 112.001H16C11.7565 112.001 7.68687 113.687 4.68629 116.687C1.68571 119.688 0 123.757 0 128.001L0 168.001C0 172.244 1.68571 176.314 4.68629 179.315C7.68687 182.315 11.7565 184.001 16 184.001H120C120.654 184.001 121.306 183.921 121.94 183.761L185.94 167.761C186.348 167.664 186.746 167.53 187.13 167.361L226 150.821L226.44 150.621C230.176 148.754 233.375 145.967 235.736 142.523C238.096 139.078 239.542 135.089 239.935 130.931C240.328 126.774 239.656 122.584 237.983 118.758C236.309 114.932 233.69 111.595 230.37 109.061H230.33ZM119.46 16.0009C125.656 15.9103 131.739 17.6697 136.929 21.0543C142.12 24.4388 146.184 29.2947 148.6 35.0009C149.203 36.4682 150.228 37.7232 151.546 38.6064C152.863 39.4896 154.414 39.9612 156 39.9612C157.586 39.9612 159.137 39.4896 160.454 38.6064C161.772 37.7232 162.797 36.4682 163.4 35.0009C165.816 29.2947 169.88 24.4388 175.071 21.0543C180.261 17.6697 186.344 15.9103 192.54 16.0009C209.59 16.0009 224 30.6509 224 48.0009C224 67.5109 208.21 89.5809 178.34 111.901L167.25 114.451C168.223 110.339 168.253 106.06 167.338 101.934C166.422 97.8091 164.585 93.9445 161.963 90.6302C159.342 87.316 156.004 84.6381 152.2 82.7973C148.397 80.9565 144.226 80.0005 140 80.0009H100.68C92.05 68.3609 88 58.1209 88 48.0009C88 30.6509 102.41 16.0009 119.46 16.0009ZM16 128.001H40V168.001H16V128.001ZM219.43 136.211L181.43 152.391L119 168.001H56V123.311L78.63 100.691C80.1104 99.1987 81.8726 98.0157 83.8142 97.2105C85.7558 96.4054 87.8381 95.9942 89.94 96.0009H140C143.183 96.0009 146.235 97.2652 148.485 99.5157C150.736 101.766 152 104.818 152 108.001C152 111.184 150.736 114.236 148.485 116.486C146.235 118.737 143.183 120.001 140 120.001H112C109.878 120.001 107.843 120.844 106.343 122.344C104.843 123.844 104 125.879 104 128.001C104 130.123 104.843 132.158 106.343 133.658C107.843 135.158 109.878 136.001 112 136.001H144C144.602 135.999 145.202 135.932 145.79 135.801L212.79 120.391L213.1 120.311C215.145 119.743 217.328 119.952 219.229 120.897C221.13 121.842 222.614 123.456 223.396 125.43C224.178 127.403 224.202 129.596 223.464 131.586C222.727 133.577 221.279 135.224 219.4 136.211H219.43Z" fill="black"/>
</svg>
